<svg width="161" height="35" viewBox="0 0 161 35" fill="none" xmlns="http://www.w3.org/2000/svg">
<path d="M7.74616 26.5817C17.5904 26.5817 35.2314 26.5924 38.8441 26.597L34.2206 34.2543C31.6478 34.2543 13.9256 34.2451 5.04618 34.2421C3.70715 34.24 2.42365 33.7067 1.47753 32.7591C0.531404 31.8116 -1.537e-06 30.5273 0 29.1882V5.05384C0 3.71348 0.53246 2.42801 1.48024 1.48023C2.42802 0.532455 3.71348 0 5.05384 0L33.7887 0.0290982C35.1288 0.0315332 36.4131 0.566115 37.3591 1.51529C38.3051 2.46446 38.8354 3.7505 38.8334 5.09059L38.7982 21.0179C38.7982 21.0179 33.657 21.0178 27.7992 21.0102C21.7193 21.0102 14.8675 20.9949 12.192 20.9796L16.8017 13.336C20.54 13.3498 27.4546 13.3498 31.147 13.3498C31.147 11.9332 31.1577 8.16578 31.1623 7.69409C29.5864 7.68643 21.4038 7.66652 7.74616 7.65886V26.5817Z" fill="#EF7714"/>
<path d="M54.1787 29.4409V19.4864H71.4398V14.771H54.1787V4.8716H72.4567V0.150085H53.7728C50.2734 0.150085 49.0038 1.92506 49.0038 4.81953V29.4945C49.0038 32.389 50.2734 34.164 53.7728 34.164H72.812V29.4409H54.1787Z" fill="white"/>
<path d="M86.8229 8.68494C79.259 8.68494 73.5742 14.5734 73.5742 21.681C73.5742 28.8911 78.8532 34.7796 86.0633 34.7796C90.1232 34.7796 93.4236 32.8515 95.3027 29.8039V34.1701H100.075V21.6748C100.075 14.2641 94.3363 8.68494 86.8229 8.68494ZM86.8229 30.006C85.7395 30.0048 84.6669 29.7897 83.6668 29.3731C82.6666 28.9565 81.7586 28.3466 80.9947 27.5783C80.2307 26.8099 79.626 25.8984 79.2152 24.8959C78.8043 23.8933 78.5954 22.8195 78.6005 21.7361C78.6005 17.1677 82.204 13.411 86.8229 13.411C91.4954 13.411 95.05 17.1677 95.05 21.7361C95.0484 26.2432 91.4954 29.9999 86.8229 29.9999V30.006Z" fill="white"/>
<path d="M119.622 13.6546V9.28834H110.076V2.84087H105.05V9.28834H100.125V13.6546H105.05V25.2248C105.05 30.9096 108.351 34.8194 114.545 34.8194C116.374 34.8194 118.356 34.2635 119.625 33.3982V28.7808C118.262 29.7119 116.656 30.224 115.005 30.2541C112.008 30.2541 110.08 28.326 110.08 25.0747V13.6546H119.622Z" fill="white"/>
<path d="M131.956 8.77837C125.458 8.77837 122.002 13.2977 122.002 19.3455V34.1701H127.027V19.543C127.027 15.8859 129.056 13.601 132.407 13.601C133.815 13.6005 135.199 13.9702 136.419 14.673V9.69418C135.159 9.08466 133.532 8.77837 131.956 8.77837Z" fill="white"/>
<path d="M147.799 8.68494C140.338 8.68494 134.5 14.5229 134.5 21.681C134.5 28.8911 140.284 34.7796 147.799 34.7796C155.262 34.7796 161 28.8911 161 21.681C161 14.5673 155.313 8.68494 147.799 8.68494ZM147.799 30.006C146.712 30.0097 145.635 29.7982 144.63 29.3839C143.625 28.9696 142.712 28.3606 141.943 27.5919C141.175 26.8233 140.566 25.9102 140.151 24.9052C139.737 23.9002 139.526 22.8231 139.529 21.7361C139.529 17.1677 143.133 13.411 147.799 13.411C152.418 13.411 155.974 17.1677 155.974 21.7361C155.974 26.2432 152.418 29.9999 147.799 29.9999V30.006Z" fill="white"/>
</svg>
